<?xml version="1.0" encoding="UTF-8"?>
<svg version="1.1" xmlns="http://www.w3.org/2000/svg" width="1500" height="844">
<path d="M0 0 C259.05 0 518.1 0 785 0 C785 244.86 785 489.72 785 742 C525.95 742 266.9 742 0 742 C0 497.14 0 252.28 0 0 Z M32 32 C32 256.07 32 480.14 32 711 C269.93 711 507.86 711 753 711 C753 486.93 753 262.86 753 32 C515.07 32 277.14 32 32 32 Z " fill="#0012DA" transform="translate(388,51)"/>
<path d="M0 0 C0.99 0 1.98 0 3 0 C3.41902588 0.96067383 3.83805176 1.92134766 4.26977539 2.91113281 C8.2973261 12.13605859 12.36129069 21.34412971 16.45462036 30.54003906 C17.46873265 32.82022522 18.48054984 35.10141922 19.49194336 37.3828125 C22.79216829 44.82201887 26.10699304 52.25363204 29.47721863 59.66143799 C30.98330745 62.974026 32.48101808 66.29037017 33.97805786 69.60705566 C34.69819789 71.19612615 35.42251487 72.78331064 36.15109253 74.36853027 C37.16458233 76.57444171 38.16377849 78.78631842 39.16015625 81 C39.46450592 81.65252747 39.76885559 82.30505493 40.08242798 82.97735596 C41.27081584 85.6491515 42.06663011 87.49641559 41.67749023 90.4375 C41.45391846 90.953125 41.23034668 91.46875 41 92 C38.89611431 92.05402274 36.79183286 92.09280256 34.6875 92.125 C33.51574219 92.14820313 32.34398437 92.17140625 31.13671875 92.1953125 C28 92 28 92 25 90 C24.0168457 88.26000977 24.0168457 88.26000977 23.17578125 86.19140625 C22.71655273 85.07088867 22.71655273 85.07088867 22.24804688 83.92773438 C21.93931641 83.14720703 21.63058594 82.36667969 21.3125 81.5625 C20.99216797 80.78583984 20.67183594 80.00917969 20.34179688 79.20898438 C18 73.41191365 18 73.41191365 18 70 C0.675 70.495 0.675 70.495 -17 71 C-19.50791231 77.15871058 -19.50791231 77.15871058 -21.99536133 83.32568359 C-22.3127124 84.09219238 -22.63006348 84.85870117 -22.95703125 85.6484375 C-23.27647705 86.43395996 -23.59592285 87.21948242 -23.92504883 88.02880859 C-25 90 -25 90 -28 92 C-31.13671875 92.1953125 -31.13671875 92.1953125 -34.6875 92.125 C-35.86699219 92.10695313 -37.04648437 92.08890625 -38.26171875 92.0703125 C-39.16535156 92.04710937 -40.06898438 92.02390625 -41 92 C-42.22318137 89.12026137 -41.99737794 87.99274363 -40.91455078 84.99609375 C-40.34720215 83.82175781 -39.77985352 82.64742188 -39.1953125 81.4375 C-38.88488007 80.78615585 -38.57444763 80.13481171 -38.25460815 79.46372986 C-37.22219684 77.30378958 -36.17355992 75.15214089 -35.125 73 C-34.39852348 71.48699282 -33.67328285 69.97339166 -32.94921875 68.45922852 C-31.42338881 65.27128468 -29.89184148 62.08617892 -28.35644531 58.90283203 C-24.88724731 51.69916129 -21.48628105 44.46331186 -18.08001709 37.22973633 C-16.04566949 32.91202181 -14.00529461 28.59714997 -11.96432495 24.28256226 C-10.21991551 20.59238744 -8.48393517 16.89847496 -6.7578125 13.19970703 C-6.39051025 12.41422989 -6.02320801 11.62875275 -5.64477539 10.81947327 C-4.93641588 9.30391269 -4.22980308 7.78753419 -3.52514648 6.27024841 C-1.11185656 1.11185656 -1.11185656 1.11185656 0 0 Z M0 33 C-1.67294007 36.45533314 -3.33727763 39.91473993 -5 43.375 C-5.47695313 44.35984375 -5.95390625 45.3446875 -6.4453125 46.359375 C-6.89648438 47.30039062 -7.34765625 48.24140625 -7.8125 49.2109375 C-8.44091797 50.51490479 -8.44091797 50.51490479 -9.08203125 51.84521484 C-10.13064356 53.91630306 -10.13064356 53.91630306 -10 56 C-3.07 56 3.86 56 11 56 C7.81292279 48.25995535 4.51433984 40.59695591 1 33 C0.67 33 0.34 33 0 33 Z " fill="#C3AA51" transform="translate(512,239)"/>
<path d="M0 0 C4.95 0 9.9 0 15 0 C15 31.35 15 62.7 15 95 C10.05 95 5.1 95 0 95 C-0.33 94.01 -0.66 93.02 -1 92 C-1.5775 92.474375 -2.155 92.94875 -2.75 93.4375 C-8.056456 97.12253889 -14.79751698 96.52770817 -21 96 C-27.62078748 94.52975441 -32.34549832 91.67263099 -36.52734375 86.32421875 C-41.52559739 78.43572825 -43.17304441 70.23923639 -42 61 C-39.95655531 51.95564125 -35.49739842 44.5271873 -27.5625 39.5 C-23.48187541 37.7042045 -19.27397026 37.58398989 -14.875 37.5 C-14.19381104 37.48130859 -13.51262207 37.46261719 -12.81079102 37.44335938 C-7.20987398 37.51424843 -6.12553406 38.58297729 -1 42 C-0.67 28.14 -0.34 14.28 0 0 Z M-24 57 C-27.07225358 61.89441777 -26.60427889 67.42720581 -26 73 C-23.88545696 77.46403531 -21.57919805 80.0831264 -17 82 C-11.76969824 82.57057837 -8.42160854 81.84948106 -4 79 C0.07082825 75.36926129 0.78088699 71.81468327 1.09375 66.56640625 C0.89107077 61.01806225 -0.5905383 57.37508459 -4.5625 53.5 C-12.2276336 50.15521443 -18.36231364 50.798545 -24 57 Z " fill="#C3AA51" transform="translate(880,389)"/>
<path d="M0 0 C2.61561335 2.74661989 2.79183628 4.3232202 2.70117188 8.05859375 C2.65927734 8.74050781 2.61738281 9.42242187 2.57421875 10.125 C2.55166016 10.82238281 2.52910156 11.51976562 2.50585938 12.23828125 C2.44718923 13.95144935 2.35751131 15.66350623 2.26171875 17.375 C0.77671875 17.87 0.77671875 17.87 -0.73828125 18.375 C-3.0078125 17.23046875 -3.0078125 17.23046875 -5.55078125 15.5625 C-13.30654963 10.75280767 -19.61102515 9.44388193 -28.73828125 10.375 C-35.81380148 12.20829306 -42.34991244 15.32515724 -46.17578125 21.8125 C-50.93595263 31.11647133 -52.49905958 40.84396015 -50.08984375 51.1484375 C-47.13761876 58.33975478 -42.22390915 64.52339092 -35.11328125 67.8125 C-26.29025262 71.19565456 -19.21676808 70.9704936 -10.39453125 67.6015625 C-7.91225289 66.45533396 -5.90969579 65.20946272 -3.73828125 63.5625 C-2.74828125 62.840625 -1.75828125 62.11875 -0.73828125 61.375 C0.74671875 61.87 0.74671875 61.87 2.26171875 62.375 C2.4240862 64.96085205 2.54267361 67.53651954 2.63671875 70.125 C2.68699219 70.85460937 2.73726562 71.58421875 2.7890625 72.3359375 C2.84765625 74.484375 2.84765625 74.484375 2.26171875 78.375 C-5.54518015 85.37507238 -16.96036441 85.95896986 -26.98828125 85.72265625 C-36.7255129 84.81993373 -44.41856705 81.78396635 -51.73828125 75.375 C-52.74890625 74.653125 -53.75953125 73.93125 -54.80078125 73.1875 C-63.27245388 65.94259963 -67.16118528 55.37950229 -68.05078125 44.58203125 C-68.66658597 30.38593131 -64.91485508 18.89718142 -55.73828125 8 C-42.63173975 -6.22995935 -16.88729548 -10.02156194 0 0 Z " fill="#C3AA51" transform="translate(788.73828125,246.625)"/>
<path d="M0 0 C1.28132497 0.64627249 2.55669807 1.305433 3.8125 2 C4.1425 1.34 4.4725 0.68 4.8125 0 C9.7625 0 14.7125 0 19.8125 0 C19.8125 18.15 19.8125 36.3 19.8125 55 C17.09226922 56.36011539 14.8463119 56.2062431 11.8125 56.25 C10.74 56.27578125 9.6675 56.3015625 8.5625 56.328125 C7.655 56.21984375 6.7475 56.1115625 5.8125 56 C5.1525 55.01 4.4925 54.02 3.8125 53 C3.07 53.474375 2.3275 53.94875 1.5625 54.4375 C-4.66222443 57.97427525 -11.99729538 57.95342337 -18.8828125 56.38671875 C-26.33717786 53.79934729 -30.52747835 49.47546669 -34.50390625 42.78515625 C-38.31844115 34.79722777 -38.55333975 25.55831044 -36.45703125 17.02734375 C-33.41706243 8.80081589 -29.01088917 3.91169458 -21.1875 0 C-14.14918472 -3.19714321 -7.06560765 -3.14771147 0 0 Z M-17.1875 15 C-21.34355014 20.24974754 -22.73480995 24.32281861 -22.1875 31 C-20.8514478 34.77278988 -19.12249805 37.96482359 -16.4375 40.9375 C-12.25656209 42.91183179 -8.42341667 43.67356492 -3.99609375 42.33984375 C0.44564324 40.31938512 2.67109533 38.51571137 4.8125 34 C5.28332436 31.05075193 5.28332436 31.05075193 5.1875 28 C5.19523438 26.989375 5.20296875 25.97875 5.2109375 24.9375 C4.60660632 20.48203878 2.69496938 17.88246938 -0.4375 14.75 C-6.38421878 10.96572441 -11.22568762 11.51290219 -17.1875 15 Z " fill="#C3AA51" transform="translate(983.1875,275)"/>
<path d="M0 0 C0.68118896 -0.01869141 1.36237793 -0.03738281 2.06420898 -0.05664062 C7.29939872 0.00961953 9.89689125 1.37699874 13.875 4.5 C14.205 3.51 14.535 2.52 14.875 1.5 C19.825 1.5 24.775 1.5 29.875 1.5 C29.875 19.98 29.875 38.46 29.875 57.5 C24.925 57.5 19.975 57.5 14.875 57.5 C14.875 56.51 14.875 55.52 14.875 54.5 C14.1325 54.974375 13.39 55.44875 12.625 55.9375 C6.15459396 59.61386707 -1.74120199 59.47348838 -8.88671875 57.88671875 C-15.98050673 55.4207312 -20.53962465 51.1365034 -24.18359375 44.6015625 C-28.04809438 36.1329439 -28.42845623 26.61857919 -25.5625 17.8125 C-22.66062038 10.68507636 -17.90645485 4.29675027 -10.69921875 1.125 C-7.14438263 0.26191384 -3.64057845 0.06950985 0 0 Z M-9.125 19.5 C-11.86073248 24.8809444 -12.79809474 29.58839858 -11.125 35.5 C-8.80411752 39.81021031 -6.68579466 42.59083014 -2.125 44.5 C2.37847861 44.9020963 5.92970214 44.78411981 9.875 42.5 C14.07947587 38.58219294 15.68387669 35.56521953 16.00390625 29.8046875 C15.69509559 24.28352714 13.87695709 20.67302293 10.3125 16.5 C3.21263147 12.3691674 -3.73121541 13.05376963 -9.125 19.5 Z " fill="#C3AA51" transform="translate(617.125,426.5)"/>
<path d="M0 0 C7.16876221 5.14192052 10.86902468 10.47609872 13 19 C13 22.96 13 26.92 13 31 C0.46 31 -12.08 31 -25 31 C-22.65918746 36.26907998 -22.65918746 36.26907998 -19 40 C-14.65813437 41.32948599 -10.37488089 41.46724086 -6.125 39.8125 C-3.17020014 38.09871608 -1.70605959 36.91033695 0 34 C3.01217112 34.64449607 5.51655836 35.65022182 8.25 37.0625 C8.95640625 37.42472656 9.6628125 37.78695312 10.390625 38.16015625 C10.92171875 38.43730469 11.4528125 38.71445312 12 39 C12.31440141 42.11148982 12.32212078 43.55360927 10.4609375 46.1328125 C1.96252884 54.24927021 -4.98487854 56.41445349 -16.64453125 56.26953125 C-23.74329835 55.69931596 -29.03319042 53.4512302 -33.9375 48.25 C-39.50722849 41.21248423 -41.57327621 32.88578122 -41 24 C-39.37329145 14.90146065 -36.03556114 6.78085723 -28.5 1.0625 C-19.98257532 -4.29553288 -8.81693659 -5.25625066 0 0 Z M-21 14 C-21.99 15.32 -22.98 16.64 -24 18 C-17.07 18 -10.14 18 -3 18 C-5.27838488 13.44323025 -6.41498448 12.83400621 -11 11 C-15.41508647 11 -17.25736648 11.77034599 -21 14 Z " fill="#C3AA51" transform="translate(906,276)"/>
<path d="M0 0 C5.61 0 11.22 0 17 0 C21.66666667 9.33333333 26.33333333 18.66666667 31 28 C33.9383247 23.27734611 36.48559051 18.36251042 39.0625 13.4375 C39.50916016 12.58736328 39.95582031 11.73722656 40.41601562 10.86132812 C42.30847166 7.2546294 44.17833383 3.64333234 46 0 C50.95 0 55.9 0 61 0 C61.495 0.99 61.495 0.99 62 2 C60.76181957 4.6102182 59.46316546 7.10330282 58.0625 9.625 C57.21714769 11.18142246 56.37343152 12.73873454 55.53125 14.296875 C55.10328125 15.08642578 54.6753125 15.87597656 54.234375 16.68945312 C52.43905366 20.04999925 50.74612978 23.45749577 49.0625 26.875 C45.72576245 33.61898728 42.23803536 40.27576675 38.71557617 46.92431641 C35.69632131 52.63786308 32.78250897 58.39613258 29.91601562 64.1875 C26.42773785 71.20685651 22.71606506 78.09873631 19 85 C14.05 85 9.1 85 4 85 C4 81.12414539 4.26896446 79.97114846 5.94140625 76.69140625 C6.35737061 75.86785645 6.77333496 75.04430664 7.2019043 74.19580078 C7.65090088 73.32681152 8.09989746 72.45782227 8.5625 71.5625 C9.01343018 70.67030762 9.46436035 69.77811523 9.92895508 68.85888672 C11.96109999 64.86095265 14.02845949 60.89570814 16.2578125 57.00390625 C16.89460937 55.88886719 17.53140625 54.77382813 18.1875 53.625 C18.75855469 52.66851562 19.32960938 51.71203125 19.91796875 50.7265625 C21.48825884 46.76965822 20.80730418 43.87352908 19.13002014 39.98101807 C17.97152242 37.62573627 16.76003387 35.30558935 15.52734375 32.98828125 C15.0848378 32.1382402 14.64233185 31.28819916 14.18641663 30.41239929 C12.77793896 27.70825452 11.35876463 25.00994333 9.9375 22.3125 C8.51345669 19.60395954 7.09193867 16.89422898 5.6778717 14.1804657 C4.79916093 12.4945423 3.91459917 10.81165305 3.02366638 9.13215637 C2.62647903 8.37093979 2.22929169 7.60972321 1.82006836 6.82543945 C1.46778671 6.15736771 1.11550507 5.48929596 0.75254822 4.80097961 C0 3 0 3 0 0 Z " fill="#C3AA50" transform="translate(982,428)"/>
<path d="M0 0 C4.72267291 2.15074288 7.81455111 4.92455243 10.68359375 9.3125 C12.50870515 15.21011489 12.95704238 20.4802225 12.87890625 26.625 C12.87607635 27.47932617 12.87324646 28.33365234 12.87033081 29.21386719 C12.85923254 31.91356053 12.83414802 34.61290877 12.80859375 37.3125 C12.79855054 39.15494309 12.78942705 40.99739143 12.78125 42.83984375 C12.75932725 47.33085994 12.72487021 51.82162168 12.68359375 56.3125 C9.73532612 57.29525588 7.75706871 57.44664725 4.68359375 57.4375 C3.38421875 57.44136719 3.38421875 57.44136719 2.05859375 57.4453125 C-0.31640625 57.3125 -0.31640625 57.3125 -3.31640625 56.3125 C-3.34613525 54.60936646 -3.34613525 54.60936646 -3.37646484 52.87182617 C-3.45250309 48.66163856 -3.54122311 44.45179737 -3.63378906 40.24194336 C-3.6720862 38.41942176 -3.7069378 36.59682437 -3.73828125 34.77416992 C-3.78391604 32.15516059 -3.84191247 29.53667326 -3.90234375 26.91796875 C-3.91389496 26.10224899 -3.92544617 25.28652924 -3.93734741 24.4460907 C-4.03837899 20.57885496 -4.12413815 18.60090215 -6.31640625 15.3125 C-10.2392782 14.44075068 -13.51113198 13.8894134 -17.31640625 15.3125 C-21.6247561 22.88415375 -20.87871628 31.83740934 -21.00390625 40.3125 C-21.03712655 41.86591343 -21.07162047 43.41930017 -21.10742188 44.97265625 C-21.19178873 48.75245593 -21.25884954 52.5322009 -21.31640625 56.3125 C-23.92560453 57.61709914 -25.9058324 57.4451594 -28.81640625 57.4375 C-29.79609375 57.44007813 -30.77578125 57.44265625 -31.78515625 57.4453125 C-34.31640625 57.3125 -34.31640625 57.3125 -36.31640625 56.3125 C-36.31640625 38.1625 -36.31640625 20.0125 -36.31640625 1.3125 C-30.31640625 1.3125 -24.31640625 1.3125 -18.31640625 1.3125 C-17.53910156 0.99023438 -16.76179688 0.66796875 -15.9609375 0.3359375 C-10.88998033 -1.62653041 -5.20084084 -1.54358851 0 0 Z " fill="#C3AA51" transform="translate(1071.31640625,273.6875)"/>
<path d="M0 0 C4.76579844 1.6004547 7.77181049 4.2136962 10.4375 8.4375 C13.10237522 14.5134155 13.14936611 20.34482323 13.1328125 26.86328125 C13.13376923 27.6958696 13.13472595 28.52845795 13.13571167 29.38627625 C13.13638908 31.13520382 13.13456554 32.88413397 13.13037109 34.63305664 C13.12498259 37.32118278 13.13034821 40.00914441 13.13671875 42.69726562 C13.13605856 44.39843787 13.13477861 46.09961001 13.1328125 47.80078125 C13.13483673 48.60800125 13.13686096 49.41522125 13.13894653 50.24690247 C13.11497358 55.88502642 13.11497358 55.88502642 12 57 C9.66839945 57.09909302 7.33370058 57.12970504 5 57.125 C3.72125 57.12757813 2.4425 57.13015625 1.125 57.1328125 C-2 57 -2 57 -3 56 C-3.13549813 53.30966659 -3.2105944 50.64139839 -3.24609375 47.94921875 C-3.27904035 46.28450011 -3.31225185 44.6197867 -3.34570312 42.95507812 C-3.39308221 40.32173368 -3.43748642 37.6884092 -3.47680664 35.05493164 C-3.51656843 32.51946297 -3.56811343 29.98444084 -3.62109375 27.44921875 C-3.6295079 26.66367111 -3.63792206 25.87812347 -3.64659119 25.06877136 C-3.73269872 21.25422076 -3.85323005 18.23652814 -6 15 C-7.6026782 14.89175157 -9.20745748 14.81429355 -10.8125 14.75 C-12.15248047 14.68039062 -12.15248047 14.68039062 -13.51953125 14.609375 C-16.10253222 14.7726484 -16.10253222 14.7726484 -17.76171875 16.703125 C-20.29390691 21.40005446 -20.19082674 26.47699856 -20.31640625 31.70703125 C-20.33718735 32.43242599 -20.35796844 33.15782074 -20.37937927 33.90519714 C-20.44442215 36.20754113 -20.50354773 38.50999282 -20.5625 40.8125 C-20.60572835 42.37956814 -20.64934398 43.94662565 -20.69335938 45.51367188 C-20.80078096 49.34233945 -20.90018942 53.17109627 -21 57 C-25.95 57 -30.9 57 -36 57 C-36 38.52 -36 20.04 -36 1 C-31.05 1 -26.1 1 -21 1 C-20.67 1.66 -20.34 2.32 -20 3 C-18.98873047 2.27296875 -18.98873047 2.27296875 -17.95703125 1.53125 C-12.38782562 -1.35267154 -6.08528654 -0.67829627 0 0 Z " fill="#C3AA51" transform="translate(796,427)"/>
<path d="M0 0 C4.62 0 9.24 0 14 0 C14.04898438 2.30097656 14.09796875 4.60195313 14.1484375 6.97265625 C14.20256585 9.2200325 14.2598265 11.46730884 14.31738281 13.71459961 C14.35548484 15.26725716 14.39036928 16.81999733 14.421875 18.37280273 C14.46793685 20.61471947 14.52585878 22.85607645 14.5859375 25.09765625 C14.59748871 25.78336197 14.60903992 26.46906769 14.62094116 27.17555237 C14.75793459 31.72706007 15.41419893 35.7255362 17 40 C20.71013399 42.47342266 22.61060262 42.38503486 27 42 C30.1850357 40.23984869 30.83296972 39.50109084 32 36 C32.15370348 33.27116927 32.25728265 30.56302858 32.31640625 27.83203125 C32.33718735 27.03721848 32.35796844 26.2424057 32.37937927 25.42350769 C32.44472087 22.88659237 32.50368808 20.34957427 32.5625 17.8125 C32.60569986 16.09178628 32.64931463 14.37108292 32.69335938 12.65039062 C32.80038648 8.43369887 32.90169724 4.2169038 33 0 C37.95 0 42.9 0 48 0 C48.07466663 5.24695799 48.12884421 10.49360043 48.16479492 15.7409668 C48.17979643 17.52259719 48.20020433 19.30419119 48.22631836 21.08569336 C48.26308509 23.66008535 48.27981285 26.2339853 48.29296875 28.80859375 C48.30845261 29.59334579 48.32393646 30.37809784 48.33988953 31.18663025 C48.34200584 38.28583159 46.69764808 44.2734743 42.9375 50.3125 C36.24586116 56.43463767 28.93458331 57.64631064 20.046875 57.3125 C12.70396039 56.55938055 8.53954731 54.11204104 3.4453125 48.81640625 C-1.26424266 42.89764098 -1.153092 36.12491103 -1.1328125 28.828125 C-1.13376923 28.06449646 -1.13472595 27.30086792 -1.13571167 26.51409912 C-1.1363887 24.910603 -1.13456787 23.30710406 -1.13037109 21.70361328 C-1.12498633 19.24375326 -1.13034734 16.78407337 -1.13671875 14.32421875 C-1.13605846 12.76302043 -1.13477833 11.20182222 -1.1328125 9.640625 C-1.13483673 8.90418762 -1.13686096 8.16775024 -1.13894653 7.40899658 C-1.11498158 2.22996316 -1.11498158 2.22996316 0 0 Z " fill="#C3AA51" transform="translate(680,428)"/>
<path d="M0 0 C4.95 0 9.9 0 15 0 C16 1 16 1 16.12025452 3.85365295 C16.1169236 5.76893044 16.1169236 5.76893044 16.11352539 7.72290039 C16.11367142 8.4253035 16.11381744 9.1277066 16.1139679 9.85139465 C16.11326872 12.18351278 16.10547617 14.515552 16.09765625 16.84765625 C16.09579208 18.46048438 16.09436818 20.07331307 16.09336853 21.68614197 C16.08954323 25.93915357 16.07971285 30.19213124 16.06866455 34.44512939 C16.05845069 38.7817743 16.05387096 43.11842467 16.04882812 47.45507812 C16.03809059 55.97006942 16.0204937 64.48502659 16 73 C23.92 73 31.84 73 40 73 C40 77.62 40 82.24 40 87 C26.8 87 13.6 87 0 87 C0 58.29 0 29.58 0 0 Z " fill="#C4AA51" transform="translate(526,397)"/>
<path d="M0 0 C1.1859375 0.00257813 2.371875 0.00515625 3.59375 0.0078125 C4.7796875 0.00523437 5.965625 0.00265625 7.1875 0 C10.09375 0.1328125 10.09375 0.1328125 11.09375 1.1328125 C11.18900367 4.05475915 11.21927736 6.95301579 11.20727539 9.87524414 C11.20742142 10.7922258 11.20756744 11.70920746 11.2077179 12.65397644 C11.2070184 15.70033086 11.19922428 18.74662495 11.19140625 21.79296875 C11.1895422 23.89904243 11.18811824 26.00511653 11.18711853 28.1111908 C11.18329231 33.66624133 11.17346114 39.22126591 11.16241455 44.77630615 C11.15220267 50.4400599 11.14762139 56.10381783 11.14257812 61.76757812 C11.13183896 72.88933435 11.1147613 84.01107127 11.09375 95.1328125 C8.48455172 96.43741164 6.50432385 96.2654719 3.59375 96.2578125 C2.6140625 96.26039063 1.634375 96.26296875 0.625 96.265625 C-1.90625 96.1328125 -1.90625 96.1328125 -3.90625 95.1328125 C-3.92937166 82.89400921 -3.94716418 70.65521107 -3.95806217 58.41639042 C-3.96329139 52.73404738 -3.97038973 47.05171923 -3.98168945 41.36938477 C-3.99251696 35.89052114 -3.99852654 30.41167188 -4.00112724 24.93279839 C-4.00298174 22.83751639 -4.00660282 20.74223522 -4.01198006 18.6469593 C-4.01918868 15.72303666 -4.02024102 12.79917417 -4.01977539 9.87524414 C-4.02337067 8.99987 -4.02696594 8.12449585 -4.03067017 7.22259521 C-4.01845745 0.18363918 -4.01845745 0.18363918 0 0 Z " fill="#C4AA51" transform="translate(824.90625,234.8671875)"/>
<path d="M0 0 C1.1859375 0.00257813 2.371875 0.00515625 3.59375 0.0078125 C4.7796875 0.00523437 5.965625 0.00265625 7.1875 0 C10.09375 0.1328125 10.09375 0.1328125 11.09375 1.1328125 C11.18900367 4.05475915 11.21927736 6.95301579 11.20727539 9.87524414 C11.20742142 10.7922258 11.20756744 11.70920746 11.2077179 12.65397644 C11.2070184 15.70033086 11.19922428 18.74662495 11.19140625 21.79296875 C11.1895422 23.89904243 11.18811824 26.00511653 11.18711853 28.1111908 C11.18329231 33.66624133 11.17346114 39.22126591 11.16241455 44.77630615 C11.15220267 50.4400599 11.14762139 56.10381783 11.14257812 61.76757812 C11.13183896 72.88933435 11.1147613 84.01107127 11.09375 95.1328125 C8.48455172 96.43741164 6.50432385 96.2654719 3.59375 96.2578125 C2.6140625 96.26039063 1.634375 96.26296875 0.625 96.265625 C-1.90625 96.1328125 -1.90625 96.1328125 -3.90625 95.1328125 C-3.92937166 82.89400921 -3.94716418 70.65521107 -3.95806217 58.41639042 C-3.96329139 52.73404738 -3.97038973 47.05171923 -3.98168945 41.36938477 C-3.99251696 35.89052114 -3.99852654 30.41167188 -4.00112724 24.93279839 C-4.00298174 22.83751639 -4.00660282 20.74223522 -4.01198006 18.6469593 C-4.01918868 15.72303666 -4.02024102 12.79917417 -4.01977539 9.87524414 C-4.02337067 8.99987 -4.02696594 8.12449585 -4.03067017 7.22259521 C-4.01845745 0.18363918 -4.01845745 0.18363918 0 0 Z " fill="#C4AB51" transform="translate(630.90625,234.8671875)"/>
<path d="M0 0 C1.08410156 -0.00257813 2.16820312 -0.00515625 3.28515625 -0.0078125 C5.9375 0.125 5.9375 0.125 6.9375 1.125 C7.03808243 4.04157629 7.07365211 6.93450946 7.06689453 9.8515625 C7.06864685 10.76693787 7.07039917 11.68231323 7.07220459 12.62542725 C7.07662461 15.66697049 7.07368459 18.70845611 7.0703125 21.75 C7.0709855 23.8536785 7.07195548 25.95735692 7.07321167 28.06103516 C7.07468885 32.47624449 7.07253345 36.89143363 7.06787109 41.30664062 C7.0621738 46.97992561 7.0654527 52.65316329 7.07144356 58.32644653 C7.07504864 62.67228556 7.07391083 67.01811328 7.07131577 71.36395264 C7.07064635 73.4564413 7.07147543 75.54893097 7.07379532 77.64141846 C7.07632098 80.56045266 7.07248248 83.47940912 7.06689453 86.3984375 C7.06891876 87.2722406 7.07094299 88.1460437 7.07302856 89.04632568 C7.05176236 95.01073764 7.05176236 95.01073764 5.9375 96.125 C3.96037193 96.22400199 1.97959962 96.25470773 0 96.25 C-1.62228516 96.25386719 -1.62228516 96.25386719 -3.27734375 96.2578125 C-6.0625 96.125 -6.0625 96.125 -8.0625 95.125 C-8.0625 64.105 -8.0625 33.085 -8.0625 1.125 C-5.31744537 -0.24752731 -3.05922588 -0.00729255 0 0 Z " fill="#C3AB51" transform="translate(587.0625,234.875)"/>
<path d="M0 0 C1.216875 0.00386719 2.43375 0.00773437 3.6875 0.01171875 C6.73361428 0.28831167 8.44645769 0.7101522 11 2.3125 C10.39254603 7.17213179 8.27241033 11.0530518 6 15.3125 C4.75283203 15.26029297 4.75283203 15.26029297 3.48046875 15.20703125 C2.39378906 15.17996094 1.30710937 15.15289062 0.1875 15.125 C-0.89144531 15.09019531 -1.97039063 15.05539062 -3.08203125 15.01953125 C-5.92486615 15.09239635 -5.92486615 15.09239635 -7.76171875 16.38671875 C-10.98738668 21.40329379 -11.27412639 27.18874503 -11.4140625 32.99609375 C-11.43342865 33.69646255 -11.4527948 34.39683136 -11.4727478 35.11842346 C-11.53194891 37.32882981 -11.57868725 39.53928995 -11.625 41.75 C-11.66323476 43.25978681 -11.70228958 44.7695531 -11.7421875 46.27929688 C-11.8375997 49.95684199 -11.92184699 53.63454294 -12 57.3125 C-14.31243792 57.33935412 -16.6249627 57.35882841 -18.9375 57.375 C-20.22527344 57.38660156 -21.51304687 57.39820313 -22.83984375 57.41015625 C-26 57.3125 -26 57.3125 -27 56.3125 C-27.0987517 54.62994765 -27.12798904 52.94325972 -27.12939453 51.2578125 C-27.13254669 50.17999512 -27.13569885 49.10217773 -27.13894653 47.99169922 C-27.1369223 46.81881348 -27.13489807 45.64592773 -27.1328125 44.4375 C-27.13376923 43.2427002 -27.13472595 42.04790039 -27.13571167 40.81689453 C-27.13639371 38.2848302 -27.13453778 35.75276412 -27.13037109 33.22070312 C-27.12502321 29.3293874 -27.13031533 25.43818711 -27.13671875 21.546875 C-27.13605797 19.09374974 -27.13477682 16.64062456 -27.1328125 14.1875 C-27.13483673 13.01461426 -27.13686096 11.84172852 -27.13894653 10.63330078 C-27.13579437 9.5554834 -27.13264221 8.47766602 -27.12939453 7.3671875 C-27.12859894 6.41312012 -27.12780334 5.45905273 -27.12698364 4.47607422 C-27 2.3125 -27 2.3125 -26 1.3125 C-23.64686445 1.23978259 -21.29166332 1.22879132 -18.9375 1.25 C-17.64714844 1.25902344 -16.35679687 1.26804687 -15.02734375 1.27734375 C-14.02832031 1.28894531 -13.02929688 1.30054688 -12 1.3125 C-11.67 1.9725 -11.34 2.6325 -11 3.3125 C-10.484375 2.82394531 -9.96875 2.33539063 -9.4375 1.83203125 C-6.1673395 -0.20657842 -3.82756518 -0.05271011 0 0 Z " fill="#C3AA51" transform="translate(954,426.6875)"/>
<path d="M0 0 C1.1653125 -0.00128906 2.330625 -0.00257813 3.53125 -0.00390625 C4.7584375 -0.00003906 5.985625 0.00382813 7.25 0.0078125 C9.09078125 0.00201172 9.09078125 0.00201172 10.96875 -0.00390625 C12.71671875 -0.00197266 12.71671875 -0.00197266 14.5 0 C15.57765625 0.00112793 16.6553125 0.00225586 17.765625 0.00341797 C20.25 0.1328125 20.25 0.1328125 21.25 1.1328125 C21.25 3.4428125 21.25 5.7528125 21.25 8.1328125 C14.98 8.1328125 8.71 8.1328125 2.25 8.1328125 C2.25 11.7628125 2.25 15.3928125 2.25 19.1328125 C8.19 19.1328125 14.13 19.1328125 20.25 19.1328125 C20.25 21.7728125 20.25 24.4128125 20.25 27.1328125 C14.31 27.1328125 8.37 27.1328125 2.25 27.1328125 C2.25 31.4228125 2.25 35.7128125 2.25 40.1328125 C3.53777344 40.12121094 4.82554687 40.10960937 6.15234375 40.09765625 C7.83072772 40.0882798 9.50911326 40.07917945 11.1875 40.0703125 C12.46270508 40.05774414 12.46270508 40.05774414 13.76367188 40.04492188 C14.57255859 40.04169922 15.38144531 40.03847656 16.21484375 40.03515625 C16.9637085 40.02991943 17.71257324 40.02468262 18.48413086 40.01928711 C20.25 40.1328125 20.25 40.1328125 21.25 41.1328125 C21.25 43.7728125 21.25 46.4128125 21.25 49.1328125 C12.01 49.1328125 2.77 49.1328125 -6.75 49.1328125 C-6.7729037 42.31514399 -6.79283241 35.49760791 -6.80493164 28.67993164 C-6.80997333 26.35863799 -6.81680651 24.03734753 -6.82543945 21.71606445 C-6.83751225 18.38752455 -6.84322979 15.05902648 -6.84765625 11.73046875 C-6.85281754 10.68568863 -6.85797882 9.64090851 -6.86329651 8.56446838 C-6.86337204 7.60354782 -6.86344757 6.64262726 -6.86352539 5.65258789 C-6.865746 4.80209366 -6.86796661 3.95159943 -6.87025452 3.07533264 C-6.6124784 -1.08862983 -3.47687703 0.00363908 0 0 Z " fill="#000000" transform="translate(609.75,551.8671875)"/>
<path d="M0 0 C16 0 16 0 23 3 C27.49571269 7.85063738 28.35586772 10.99327167 28.28125 17.45703125 C27.75671272 22.19972252 25.33469568 24.82232734 21.875 27.875 C19 29 19 29 9 29 C9 35.6 9 42.2 9 49 C6.03 49 3.06 49 0 49 C0 32.83 0 16.66 0 0 Z M9 8 C9 12.62 9 17.24 9 22 C10.464375 21.71125 11.92875 21.4225 13.4375 21.125 C14.67306641 20.88136719 14.67306641 20.88136719 15.93359375 20.6328125 C16.61550781 20.42398438 17.29742188 20.21515625 18 20 C19.39935013 17.20129973 19.25265405 15.09501208 19 12 C18.04451019 10.04374022 18.04451019 10.04374022 16 9 C12.38976901 8.26958147 12.38976901 8.26958147 9 8 Z " fill="#000000" transform="translate(787,552)"/>
<path d="M0 0 C0.99 0 1.98 0 3 0 C5.97 0 8.94 0 12 0 C12 10.56 12 21.12 12 32 C8.7 32 5.4 32 2 32 C1.01 32.495 1.01 32.495 0 33 C-4.89633308 33.53718762 -8.8677559 33.52418708 -13.375 31.4375 C-18.33977416 26.82735256 -20.2247115 23.18951056 -20.5 16.5 C-20.2247115 9.81048944 -18.33977416 6.17264744 -13.375 1.5625 C-8.80042136 -0.55536048 -4.94886733 -0.30664238 0 0 Z M-8.375 8.9375 C-10.80130096 12.01703583 -11.17824988 15.18990885 -11 19 C-10.13353917 22.00155751 -10.13353917 22.00155751 -8 24 C-5.14710302 25.25329784 -5.14710302 25.25329784 -2 25 C1.42060515 23.0996638 2.71069647 21.83174766 4 18.125 C4 14.15822703 3.37335184 12.18919153 1 9 C-2.63354528 7.87690419 -4.81004806 7.53028213 -8.375 8.9375 Z " fill="#000000" transform="translate(666,569)"/>
<path d="M0 0 C4.47870656 2.15937638 7.18198188 4.92952939 10 9 C11.5302087 13.59062609 11.9413765 18.37540138 10.28125 23.00390625 C7.83000444 27.58022356 4.61895495 30.69052253 0 33 C-6.52968508 33.76949151 -11.91696848 33.55907219 -17.33984375 29.6171875 C-21.21356825 25.8437241 -22.74542696 21.78201126 -23.5 16.5 C-22.67629158 10.73404103 -20.65299538 6.53492428 -16.375 2.5625 C-11.16555332 -0.86476755 -6.11829016 -0.57659279 0 0 Z M-11.375 9.4375 C-13.70069294 13.10493887 -13.86672198 16.76008978 -13 21 C-11.10207331 23.42604542 -10.13756292 23.95813303 -7.125 24.875 C-4.00078994 25.18458211 -4.00078994 25.18458211 -1.1875 24.0625 C1.57712031 21.45585799 1.89172421 19.7140203 2.14453125 16.00390625 C1.93122059 13.04638277 0.85387799 11.26585087 -1 9 C-4.68585522 7.15707239 -7.87073798 7.3164993 -11.375 9.4375 Z " fill="#000000" transform="translate(851,569)"/>
<path d="M0 0 C3.361875 -0.0825 6.72375 -0.165 10.1875 -0.25 C11.23832764 -0.28641602 12.28915527 -0.32283203 13.37182617 -0.36035156 C17.74859079 -0.41239095 20.29968768 -0.42528377 24.11328125 1.890625 C27.18430129 5.32406355 27.11966424 7.34916723 27.09765625 11.8828125 C27.09443359 13.04941406 27.09121094 14.21601562 27.08789062 15.41796875 C27.07951172 16.64128906 27.07113281 17.86460937 27.0625 19.125 C27.05798828 20.35605469 27.05347656 21.58710937 27.04882812 22.85546875 C27.0370133 25.90369392 27.02054028 28.95182314 27 32 C24.03 32 21.06 32 18 32 C18 24.41 18 16.82 18 9 C15.69 9 13.38 9 11 9 C9.34920558 10.65079442 9.77450553 12.63736179 9.68359375 14.91015625 C9.64169922 15.89951172 9.59980469 16.88886719 9.55664062 17.90820312 C9.51732422 18.94912109 9.47800781 19.99003906 9.4375 21.0625 C9.39431641 22.10728516 9.35113281 23.15207031 9.30664062 24.22851562 C9.20018775 26.81886884 9.0981724 29.40932186 9 32 C6.03 32 3.06 32 0 32 C0 21.44 0 10.88 0 0 Z " fill="#000000" transform="translate(904,569)"/>
<path d="M0 0 C3.125 2 3.125 2 5 4 C4.6875 5.875 4.6875 5.875 4 8 C1 10 1 10 -0.9375 9.6875 C-1.9584375 9.3471875 -1.9584375 9.3471875 -3 9 C-3.7425 8.814375 -4.485 8.62875 -5.25 8.4375 C-5.8275 8.293125 -6.405 8.14875 -7 8 C-7 8.66 -7 9.32 -7 10 C-6.13375 10.2475 -5.2675 10.495 -4.375 10.75 C-0.32030457 12.25173905 3.9892331 13.9784662 6 18 C6.42071592 21.05920574 6.48514117 23.9467746 6 27 C3.81840855 29.75569447 2.12822506 31.43588747 -1 33 C-3.0234375 33.16796875 -3.0234375 33.16796875 -5.375 33.1875 C-6.14585937 33.20167969 -6.91671875 33.21585938 -7.7109375 33.23046875 C-10.27191768 32.97262262 -11.82486225 32.3600433 -14 31 C-15.8125 28.5625 -15.8125 28.5625 -17 26 C-16.505 24.515 -16.505 24.515 -16 23 C-12.9375 21.8125 -12.9375 21.8125 -10 21 C-9.566875 21.495 -9.13375 21.99 -8.6875 22.5 C-7.00259517 24.33218192 -7.00259517 24.33218192 -4 24 C-4 23.01 -4 22.02 -4 21 C-4.62648438 20.66226563 -5.25296875 20.32453125 -5.8984375 19.9765625 C-6.71570313 19.53054688 -7.53296875 19.08453125 -8.375 18.625 C-9.18710937 18.18414063 -9.99921875 17.74328125 -10.8359375 17.2890625 C-13 16 -13 16 -15 14 C-15.85971396 9.39374309 -15.57800884 5.9440811 -13.125 1.9375 C-8.74769885 -0.77642671 -5.02646447 -0.93113194 0 0 Z " fill="#000000" transform="translate(710,569)"/>
<path d="M0 0 C2.97 0 5.94 0 9 0 C9 3.3 9 6.6 9 10 C10.65 10 12.3 10 14 10 C14 12.64 14 15.28 14 18 C12.35 18 10.7 18 9 18 C9 25.92 9 33.84 9 42 C6.03 42 3.06 42 0 42 C0 34.08 0 26.16 0 18 C-0.99 18 -1.98 18 -3 18 C-3 15.36 -3 12.72 -3 10 C-2.01 10 -1.02 10 0 10 C0 6.7 0 3.4 0 0 Z " fill="#000000" transform="translate(949,559)"/>
<path d="M0 0 C2.97 0 5.94 0 9 0 C9 3.3 9 6.6 9 10 C10.65 10 12.3 10 14 10 C14 12.64 14 15.28 14 18 C12.35 18 10.7 18 9 18 C9 25.92 9 33.84 9 42 C6.03 42 3.06 42 0 42 C0 34.08 0 26.16 0 18 C-0.99 18 -1.98 18 -3 18 C-3 15.36 -3 12.72 -3 10 C-2.01 10 -1.02 10 0 10 C0 6.7 0 3.4 0 0 Z " fill="#000000" transform="translate(731,559)"/>
<path d="M0 0 C6.15234375 -0.09765625 6.15234375 -0.09765625 8 0 C9.88319268 1.88319268 9.13054285 5.11930137 9.1328125 7.625 C9.13376923 8.28709473 9.13472595 8.94918945 9.13571167 9.63134766 C9.13639326 11.03352961 9.13454042 12.4357147 9.13037109 13.83789062 C9.12502246 15.99095713 9.1303167 18.14381502 9.13671875 20.296875 C9.13605796 21.65625046 9.13477679 23.0156258 9.1328125 24.375 C9.13168457 25.62023437 9.13055664 26.86546875 9.12939453 28.1484375 C9 31 9 31 8 32 C5.32941149 32.14115161 2.67567762 32.04247107 0 32 C-1.39886325 29.2022735 -1.12974597 26.87611108 -1.1328125 23.75 C-1.13410156 22.5021875 -1.13539063 21.254375 -1.13671875 19.96875 C-1.13285156 18.6590625 -1.12898437 17.349375 -1.125 16 C-1.12886719 14.6903125 -1.13273438 13.380625 -1.13671875 12.03125 C-1.13542969 10.7834375 -1.13414062 9.535625 -1.1328125 8.25 C-1.13168457 7.10015625 -1.13055664 5.9503125 -1.12939453 4.765625 C-1 2 -1 2 0 0 Z " fill="#000000" transform="translate(878,569)"/>
<path d="M0 0 C3.0625 0.4375 3.0625 0.4375 5 2.6875 C6.0625 5.4375 6.0625 5.4375 5.875 7.6875 C5.0625 9.4375 5.0625 9.4375 3.0625 10.4375 C0.0625 10.625 0.0625 10.625 -2.9375 10.4375 C-4.9375 8.4375 -4.9375 8.4375 -5.1875 5.4375 C-4.84652809 1.34583708 -4.04354945 0.60223077 0 0 Z " fill="#000000" transform="translate(881.9375,552.5625)"/>
</svg>
